# xmcd CD database file
#
# Track frame offsets:
#	182
#	13127
#	25647
#	41697
#	55040
#	72525
#	88945
#	103440
#	126400
#	142517
#	169147
#	183310
#	192710
#	202225
#	218045
#	234545
#	252897
#	268157
#	285767
#	317562
#	330320
#
# Disc length: 4636 seconds
#
# Revision: 0
# Processed by: cddbd v1.5.2PL0 Copyright (c) Steve Scherf et al.
# Submitted via: CDex 1.75
#
DISCID=3a121a15
DTITLE=Ella Fitzgerald - Essential Ella
DYEAR=1994
DGENRE=Jazz
TTITLE0=Manhatten
TTITLE1=With a Song in my Heart
TTITLE2=Ev'ry Time we say Goodbye
TTITLE3=Let's Face the Musc and Dance
TTITLE4=The Man I Love
TTITLE5=A Fine Romance
TTITLE6=Blue Moon
TTITLE7=Mac the Knife
TTITLE8=Let's Do it (Let's Fall in Love) 
TTITLE9=Love for Sale
TTITLE10=It's Alright with Me
TTITLE11=What is this Thing Called Love?
TTITLE12=But Not for Me
TTITLE13='s Wonderful
TTITLE14=I Could Write a Book
TTITLE15=Let's Fall in Love
TTITLE16=The Lady is a Tramp
TTITLE17=My Funny Valentine
TTITLE18=Bewitched
TTITLE19=There's a Small Hotel
TTITLE20=Love is Here to Stay
EXTD=YEAR: 1994
EXTT0=
EXTT1=
EXTT2=
EXTT3=
EXTT4=
EXTT5=
EXTT6=
EXTT7=
EXTT8=
EXTT9=
EXTT10=
EXTT11=
EXTT12=
EXTT13=
EXTT14=
EXTT15=
EXTT16=
EXTT17=
EXTT18=
EXTT19=
EXTT20=
PLAYORDER=
